<?xml version="1.0" encoding="UTF-8" standalone="no"?>
<!DOCTYPE svg PUBLIC "-//W3C//DTD SVG 1.1//EN" "http://www.w3.org/Graphics/SVG/1.1/DTD/svg11.dtd">
<svg width="100%" height="100%" viewBox="0 0 2560 378" version="1.1" xmlns="http://www.w3.org/2000/svg" xmlns:xlink="http://www.w3.org/1999/xlink" xml:space="preserve" xmlns:serif="http://www.serif.com/" style="fill-rule:evenodd;clip-rule:evenodd;stroke-linejoin:round;stroke-miterlimit:2;">
    <g transform="matrix(1,0,0,1,0,-1062.79)">
        <path d="M0,1257.5L58.926,1216.47L142.312,1181.98L211.137,1132.94L313.053,1096.02L424.233,1181.98L536.737,1209.85L645.27,1181.98L748.509,1127.13L846.453,1209.85L970.869,1097.35L1076.76,1181.98L1162.79,1168.82L1231.61,1193.97L1324.26,1150.29L1389.12,1095.95L1488.39,1236.32L1565.15,1181.98L1625.48,1175.45L1709.42,1127.13L1829.87,1062.79L1997.96,1154.12L2111.79,1144.92L2201.79,1080.14L2365.92,1127.13L2445.33,1167.5L2560,1144.47L2560,1440L0,1440L0,1257.5Z" class="layer-1"/>
    </g>
</svg>
