<?xml version="1.0" encoding="UTF-8" standalone="no"?>
<!DOCTYPE svg PUBLIC "-//W3C//DTD SVG 1.1//EN" "http://www.w3.org/Graphics/SVG/1.1/DTD/svg11.dtd">
<svg width="100%" height="100%" viewBox="0 0 2560 517" version="1.1" xmlns="http://www.w3.org/2000/svg" xmlns:xlink="http://www.w3.org/1999/xlink" xml:space="preserve" xmlns:serif="http://www.serif.com/" style="fill-rule:evenodd;clip-rule:evenodd;stroke-linejoin:round;stroke-miterlimit:2;">
    <g transform="matrix(1,0,0,1,0,-923.958)">
        <g transform="matrix(1,0,0,1,-8.82662,100.876)">
            <path d="M8.827,969.573L45.534,919.86L136.322,943.818L264.939,897.163L353.835,855.236L461.331,823.082L573.87,856.813L628.091,884.553L744.098,849.247L814.711,907.25L964.764,926.165L1073.2,899.685L1170.3,921.121L1280,904.729L1456.53,846.725L1583.89,897.163L1694.85,864.378L1760.42,831.594L1862.56,885.814L1936.95,869.422L2000,837.898L2156.36,851.769L2290.02,895.902L2456.46,878.249L2568.83,899.085L2568.83,1339.12L8.827,1339.12L8.827,969.573Z" style="fill:rgb(60,49,49);"/>
        </g>
    </g>
</svg>
