<?xml version="1.0" encoding="UTF-8" standalone="no"?>
<!DOCTYPE svg PUBLIC "-//W3C//DTD SVG 1.1//EN" "http://www.w3.org/Graphics/SVG/1.1/DTD/svg11.dtd">
<svg width="100%" height="100%" viewBox="0 0 2560 873" version="1.1" xmlns="http://www.w3.org/2000/svg" xmlns:xlink="http://www.w3.org/1999/xlink" xml:space="preserve" xmlns:serif="http://www.serif.com/" style="fill-rule:evenodd;clip-rule:evenodd;stroke-linejoin:round;stroke-miterlimit:2;">
    <g transform="matrix(1,0,0,1,0,-567.931)">
        <g transform="matrix(1.07102,0,0,1.04579,-2.78537,118.38)">
            <g id="Mordor" transform="matrix(0.933686,0,0,0.956213,2.23484,33.8623)">
                <path d="M524.983,1000.27L631.874,1051.63L757.968,1083.15L1076.99,1127.29L1272.43,1144.94L1568.76,1146.2L1834.82,1124.76L2054.22,1035.24L2118.53,977.233L2191.66,894.011L2218.14,814.571L2269.84,786.83L2301.37,842.312L2355.59,779.264L2424.94,698.564L2486.72,733.87L2560.39,677.128L2560.39,1286.21L0.392,1286.21L0.392,919.017L40.49,857.443L70.753,761.611L103.538,714.956L145.149,752.785L171.629,804.483L198.109,743.958L223.327,672.084L262.417,774.221L321.681,830.963L351.944,910.403L391.705,945.678L391.624,936.675L391.672,923.541L391.482,913.204C391.482,913.204 392.478,910.596 393.237,910.643C393.995,910.691 395.607,864.981 395.607,864.981L396.603,828.801L398.026,828.944L399.164,827.711L400.539,827.142L402.009,825.577L401.772,819.745L402.435,818.986C402.435,818.986 402.104,793.997 402.056,792.859C402.009,791.721 406.656,787.643 406.656,787.643L407.225,765.12L406.987,739.657C406.987,739.657 407.13,733.066 404.38,731.312L401.44,728.087L404.617,721.354L404.854,718.319L404.996,712.866L405.849,704.806L406.181,697.361C406.181,697.361 406.276,706.513 407.746,704.521C409.216,702.53 409.121,702.198 409.216,700.016C409.311,697.835 409.216,715.901 411.919,716.707C414.622,717.513 413.294,691.671 413.294,691.671L413.721,678.631L414.479,667.868L414.811,661.277L415.285,661.087L416.044,652.457L417.704,650.086C417.704,650.086 417.324,646.198 416.566,646.198C415.807,646.198 417.893,643.495 414.622,643.732L415.143,642.215L415.238,633.87C415.238,633.87 416.234,631.973 415.475,630.977C414.716,629.981 415.617,628.464 416.139,627.99C416.661,627.516 414.574,622.3 412.915,625.761C411.255,629.223 413.578,623.627 413.578,623.627C413.578,623.627 414.29,618.601 415.57,618.317C415.57,618.317 414.337,616.183 415.57,612.722C415.57,612.722 415.902,612.627 416.613,611.678C417.324,610.73 415.57,606.51 413.91,607.411C412.251,608.312 412.678,608.501 412.678,608.501L412.82,574.361C412.82,574.361 414.432,585.22 416.898,584.603C419.363,583.987 419.885,580.004 419.885,580.004L419.838,569.667C419.838,569.667 418.794,567.533 417.656,567.533C417.656,567.533 417.799,564.783 417.087,564.783C417.087,564.783 418.7,558.761 417.609,554.636C416.518,550.51 414.764,550.984 414.147,550.131C413.531,549.277 414.1,545.152 409.975,546.575L408.979,530.5L408.268,530.453L408.268,513.003C408.268,513.003 409.88,517.366 410.876,516.417C411.871,515.469 410.876,507.55 410.686,507.693C410.496,507.835 411.255,500.675 411.255,500.675L411.587,492.614L411.35,486.639L412.772,484.032L413.199,480.333L413.578,477.535L413.389,464.401L413.104,445.908L413.152,414.139L415.238,424.76L417.704,443.585C417.704,443.585 419.458,455.297 420.122,455.913L422.635,467.72L424.909,480.173C424.909,480.173 429.084,510.268 449.189,515.564L451.085,514.316L451.939,513.273C451.939,513.273 451.891,515.786 454.31,513.178L454.926,511.471C454.926,511.471 454.31,515.596 458.767,515.549C463.224,515.501 467.444,510.428 468.582,508.863C469.72,507.298 478.018,494.97 477.829,493.784C477.639,492.599 483.234,480.887 483.803,471.261C484.372,461.635 485.747,452.294 485.747,452.294L488.592,424.982L489.256,448.596L489.683,464.243L490.584,490.512L491.39,499.142C491.39,499.142 492.291,504.121 490.963,506.065L491.2,511.518C491.2,511.518 491.864,519.01 490.963,522.472L490.821,528.114C490.821,528.114 492.538,533.947 495.373,527.356L496.359,522.898L496.549,539.874L495.932,541.581L495.79,558.319C495.79,558.319 491.428,551.965 487.208,558.319C487.208,558.319 487.16,573.113 488.772,580.131C488.772,580.131 486.496,581.458 488.251,584.304C490.005,587.149 490.527,584.256 490.669,582.881C490.811,581.506 491.807,617.353 491.807,617.353C491.807,617.353 489.389,616.31 489.673,618.207C489.958,620.103 489.815,621.336 489.815,621.336L488.867,622.664L489.958,625.035L489.199,626.22C489.199,626.22 491.143,635.988 489.009,635.798L490.195,650.925C490.195,650.925 486.117,647.985 486.781,652.442L488.346,654.481L488.535,657.373L489.199,670.223L490.574,673.163C490.574,673.163 491.001,673.827 490.337,675.25C489.673,676.672 491.902,707.825 491.902,707.825L492.66,715.839C492.66,715.839 494.225,719.727 495.6,714.369C496.975,709.01 497.876,698.436 497.876,698.436C497.876,698.436 498.113,707.588 499.157,705.075C500.2,702.562 500.437,696.587 500.437,695.829C500.437,695.07 500.484,709.437 500.674,710.812C500.864,712.187 500.911,721.386 501.717,722.524C502.523,723.662 502.713,725.796 503.756,726.982C503.756,726.982 499.394,730.064 500.105,731.534C500.105,731.534 498.73,742.487 499.536,746.28L499.441,787.438L499.489,799.672C499.489,799.672 500.721,802.043 502.286,802.707C503.851,803.371 503.709,801.616 504.041,801.095L503.946,810.436L503.993,829.213L504.325,877.294L504.704,917.598L509.778,928.267C509.778,928.267 509.825,931.539 509.114,931.065C509.114,931.065 508.071,934.289 509.588,934.574L509.689,949.823C509.689,949.823 507.945,960.301 511.535,957.941C515.124,955.582 515.559,954.981 515.559,954.981L517.507,951.983L518.019,955.827L517.948,960.275C517.948,960.275 513.204,964.433 514.805,966.999C516.406,969.564 518.108,973.684 520.528,972.234C520.528,972.234 519.177,975.518 524.71,974.088C524.71,974.088 524.611,981.129 525.652,981.333C526.693,981.537 529.031,988.165 528.363,988.103C527.695,988.04 528.93,990.835 526.341,991.102C526.341,991.102 527.289,1000.75 524.983,1000.27Z" style="fill:rgb(161,161,161);"/>
            </g>
        </g>
        <g transform="matrix(1.07102,0,0,1.04579,-2.78537,118.38)">
            <g transform="matrix(0.29546,0,0,0.29546,139.055,419.591)">
                <path d="M1065.59,223.721L1046.06,229.818C1046.06,229.818 1036.68,252.435 1003.54,258.754C970.412,265.072 964.628,261.21 951.941,257.644C939.254,254.079 922.067,241.664 917.14,236.562C912.213,231.461 888.934,214.502 888.934,214.502C888.934,214.502 880.258,205.501 871.912,204.687L870.777,198.181C870.777,198.181 903.741,193.268 909.627,179.367C915.512,165.467 927.482,138.298 977.567,142.516C1027.65,146.734 1047.33,176.486 1048.34,184.343C1048.34,184.343 1046.51,202.468 1066.7,207.21" style="fill:rgb(161,161,161);"/>
            </g>
        </g>
        <g transform="matrix(1.07102,0,0,1.04579,-2.78537,118.38)">
            <g transform="matrix(0.29546,0,0,0.29546,140.769,417.505)">
                <path d="M986.464,168.622C986.464,168.622 1007.03,185.567 987.588,226.826C987.588,226.826 981.16,219.625 982.061,198.64C982.061,198.64 983.014,174.714 986.464,168.622Z" style="fill:rgb(137,124,124);"/>
            </g>
        </g>
    </g>
</svg>
