<?xml version="1.0" encoding="UTF-8" standalone="no"?>
<!DOCTYPE svg PUBLIC "-//W3C//DTD SVG 1.1//EN" "http://www.w3.org/Graphics/SVG/1.1/DTD/svg11.dtd">
<svg width="100%" height="100%" viewBox="0 0 24 24" version="1.1" xmlns="http://www.w3.org/2000/svg" xmlns:xlink="http://www.w3.org/1999/xlink" xml:space="preserve" xmlns:serif="http://www.serif.com/" style="fill-rule:evenodd;clip-rule:evenodd;stroke-linejoin:round;stroke-miterlimit:2;">
    <g id="_-ffc300" serif:id="#ffc300" transform="matrix(2.04659,0,0,2.08775,-23.5699,-24.0439)">
        <path d="M17.38,11.517C20.616,11.517 23.243,14.092 23.243,17.264C23.243,20.437 20.616,23.012 17.38,23.012C14.144,23.012 11.517,20.437 11.517,17.264C11.517,14.092 14.144,11.517 17.38,11.517ZM17.38,14.227C15.665,14.227 14.272,15.592 14.272,17.274C14.272,18.955 15.665,20.32 17.38,20.32C19.095,20.32 20.488,18.955 20.488,17.274C20.488,15.592 19.095,14.227 17.38,14.227Z" style="fill:rgb(235,189,41);"/>
    </g>
</svg>
